<svg width="28" height="21" viewBox="0 0 28 21" fill="none" xmlns="http://www.w3.org/2000/svg">
<path d="M0.860291 0.5H27.527V7.16667H0.860291V0.5Z" fill="#FF9933"/>
<path d="M0.860291 7.16663H27.527V13.8333H0.860291V7.16663Z" fill="white"/>
<path d="M0.860291 13.8333H27.527V20.4999H0.860291V13.8333Z" fill="#128807"/>
<path d="M14.1936 13.1667C15.6664 13.1667 16.8603 11.9728 16.8603 10.5C16.8603 9.02725 15.6664 7.83334 14.1936 7.83334C12.7209 7.83334 11.5269 9.02725 11.5269 10.5C11.5269 11.9728 12.7209 13.1667 14.1936 13.1667Z" fill="#000088"/>
<path d="M14.1936 12.8334C15.4823 12.8334 16.527 11.7887 16.527 10.5C16.527 9.21136 15.4823 8.16669 14.1936 8.16669C12.905 8.16669 11.8603 9.21136 11.8603 10.5C11.8603 11.7887 12.905 12.8334 14.1936 12.8334Z" fill="white"/>
<path d="M14.1936 10.9666C14.4513 10.9666 14.6603 10.7577 14.6603 10.5C14.6603 10.2422 14.4513 10.0333 14.1936 10.0333C13.9359 10.0333 13.7269 10.2422 13.7269 10.5C13.7269 10.7577 13.9359 10.9666 14.1936 10.9666Z" fill="#000088"/>
<path d="M16.4913 10.9244C16.557 10.9331 16.6173 10.8868 16.6259 10.8211C16.6346 10.7554 16.5883 10.6952 16.5226 10.6865C16.4569 10.6779 16.3966 10.7241 16.388 10.7898C16.3793 10.8555 16.4256 10.9158 16.4913 10.9244Z" fill="#000088"/>
<path d="M14.1936 12.8334L14.2736 11.4334L14.1936 10.7668L14.1136 11.4334L14.1936 12.8334Z" fill="#000088"/>
<path d="M16.3031 11.5047C16.3644 11.53 16.4346 11.5009 16.4599 11.4397C16.4853 11.3785 16.4562 11.3083 16.395 11.2829C16.3338 11.2576 16.2636 11.2866 16.2382 11.3479C16.2128 11.4091 16.2419 11.4793 16.3031 11.5047Z" fill="#000088"/>
<path d="M13.5897 12.7539L14.0293 11.4223L14.1246 10.7577L13.8748 11.3809L13.5897 12.7539Z" fill="#000088"/>
<path d="M15.9712 12.0165C16.0238 12.0568 16.0991 12.0469 16.1395 11.9943C16.1798 11.9417 16.1699 11.8664 16.1173 11.8261C16.0647 11.7857 15.9894 11.7956 15.9491 11.8482C15.9087 11.9008 15.9186 11.9761 15.9712 12.0165Z" fill="#000088"/>
<path d="M13.0269 12.5208L13.7962 11.3484L14.0602 10.731L13.6576 11.2684L13.0269 12.5208Z" fill="#000088"/>
<path d="M15.5182 12.4248C15.5585 12.4774 15.6339 12.4873 15.6864 12.447C15.739 12.4066 15.7489 12.3313 15.7086 12.2787C15.6682 12.2262 15.5929 12.2162 15.5403 12.2566C15.4877 12.2969 15.4778 12.3723 15.5182 12.4248Z" fill="#000088"/>
<path d="M12.5436 12.1499L13.5902 11.2166L14.005 10.6886L13.477 11.1034L12.5436 12.1499Z" fill="#000088"/>
<path d="M14.9749 12.7021C15.0002 12.7633 15.0704 12.7924 15.1317 12.767C15.1929 12.7417 15.222 12.6715 15.1966 12.6102C15.1713 12.549 15.1011 12.5199 15.0398 12.5453C14.9786 12.5706 14.9495 12.6408 14.9749 12.7021Z" fill="#000088"/>
<path d="M12.1729 11.6667L13.4253 11.036L13.9626 10.6334L13.3453 10.8974L12.1729 11.6667Z" fill="#000088"/>
<path d="M14.3783 12.8292C14.387 12.8949 14.4473 12.9412 14.513 12.9325C14.5787 12.9239 14.6249 12.8636 14.6163 12.7979C14.6076 12.7322 14.5474 12.6859 14.4816 12.6946C14.4159 12.7032 14.3697 12.7635 14.3783 12.8292Z" fill="#000088"/>
<path d="M11.9398 11.104L13.3128 10.8189L13.936 10.5691L13.2714 10.6643L11.9398 11.104Z" fill="#000088"/>
<path d="M13.7692 12.7978C13.7605 12.8635 13.8068 12.9238 13.8725 12.9324C13.9382 12.9411 13.9985 12.8948 14.0071 12.8291C14.0158 12.7634 13.9695 12.7031 13.9038 12.6945C13.8381 12.6858 13.7778 12.7321 13.7692 12.7978Z" fill="#000088"/>
<path d="M11.8603 10.5001L13.2603 10.5801L13.9269 10.5001L13.2603 10.4201L11.8603 10.5001Z" fill="#000088"/>
<path d="M13.189 12.6095C13.1636 12.6708 13.1927 12.741 13.2539 12.7663C13.3152 12.7917 13.3854 12.7626 13.4107 12.7014C13.4361 12.6402 13.407 12.57 13.3458 12.5446C13.2845 12.5192 13.2143 12.5483 13.189 12.6095Z" fill="#000088"/>
<path d="M11.9398 9.89614L13.2714 10.3358L13.936 10.431L13.3128 10.1812L11.9398 9.89614Z" fill="#000088"/>
<path d="M12.6772 12.2779C12.6369 12.3305 12.6468 12.4058 12.6994 12.4461C12.7519 12.4865 12.8273 12.4766 12.8676 12.424C12.908 12.3714 12.8981 12.2961 12.8455 12.2557C12.7929 12.2154 12.7176 12.2253 12.6772 12.2779Z" fill="#000088"/>
<path d="M12.1729 9.33359L13.3453 10.1029L13.9627 10.3669L13.4253 9.9643L12.1729 9.33359Z" fill="#000088"/>
<path d="M12.2688 11.8249C12.2162 11.8653 12.2063 11.9406 12.2466 11.9932C12.287 12.0458 12.3623 12.0557 12.4149 12.0153C12.4675 11.975 12.4774 11.8997 12.437 11.8471C12.3967 11.7945 12.3214 11.7846 12.2688 11.8249Z" fill="#000088"/>
<path d="M12.5437 8.85037L13.4771 9.89689L14.005 10.3117L13.5902 9.78375L12.5437 8.85037Z" fill="#000088"/>
<path d="M11.9915 11.2816C11.9303 11.3069 11.9012 11.3771 11.9266 11.4383C11.952 11.4996 12.0221 11.5287 12.0834 11.5033C12.1446 11.4779 12.1737 11.4077 12.1483 11.3465C12.123 11.2853 12.0528 11.2562 11.9915 11.2816Z" fill="#000088"/>
<path d="M13.0269 8.47952L13.6576 9.73196L14.0602 10.2693L13.7962 9.65196L13.0269 8.47952Z" fill="#000088"/>
<path d="M11.8643 10.6851C11.7986 10.6937 11.7524 10.754 11.761 10.8197C11.7697 10.8854 11.83 10.9317 11.8957 10.923C11.9614 10.9144 12.0076 10.8541 11.999 10.7884C11.9903 10.7227 11.9301 10.6764 11.8643 10.6851Z" fill="#000088"/>
<path d="M13.5897 8.24644L13.8747 9.61945L14.1246 10.2427L14.0293 9.57803L13.5897 8.24644Z" fill="#000088"/>
<path d="M11.8959 10.0759C11.8302 10.0672 11.7699 10.1135 11.7613 10.1792C11.7526 10.2449 11.7989 10.3052 11.8646 10.3138C11.9303 10.3225 11.9906 10.2762 11.9992 10.2105C12.0079 10.1448 11.9616 10.0845 11.8959 10.0759Z" fill="#000088"/>
<path d="M14.1936 8.16692L14.1136 9.56692L14.1936 10.2336L14.2736 9.56692L14.1936 8.16692Z" fill="#000088"/>
<path d="M12.0841 9.49568C12.0228 9.47032 11.9526 9.4994 11.9273 9.56063C11.9019 9.62186 11.931 9.69205 11.9922 9.71741C12.0535 9.74278 12.1236 9.7137 12.149 9.65247C12.1744 9.59124 12.1453 9.52105 12.0841 9.49568Z" fill="#000088"/>
<path d="M14.7975 8.24645L14.3579 9.57804L14.2626 10.2427L14.5124 9.61945L14.7975 8.24645Z" fill="#000088"/>
<path d="M12.416 8.98395C12.3634 8.9436 12.288 8.95352 12.2477 9.0061C12.2074 9.05868 12.2173 9.13401 12.2698 9.17435C12.3224 9.2147 12.3978 9.20478 12.4381 9.1522C12.4784 9.09962 12.4685 9.02429 12.416 8.98395Z" fill="#000088"/>
<path d="M15.3603 8.4796L14.591 9.65204L14.3269 10.2694L14.7295 9.73204L15.3603 8.4796Z" fill="#000088"/>
<path d="M12.869 8.57565C12.8287 8.52307 12.7533 8.51315 12.7007 8.5535C12.6482 8.59384 12.6383 8.66917 12.6786 8.72175C12.7189 8.77433 12.7943 8.78425 12.8469 8.7439C12.8994 8.70356 12.9093 8.62823 12.869 8.57565Z" fill="#000088"/>
<path d="M15.8435 8.85052L14.797 9.7839L14.3822 10.3119L14.9101 9.89703L15.8435 8.85052Z" fill="#000088"/>
<path d="M13.4124 8.29796C13.387 8.23673 13.3168 8.20766 13.2556 8.23302C13.1943 8.25838 13.1653 8.32858 13.1906 8.38981C13.216 8.45104 13.2862 8.48011 13.3474 8.45475C13.4086 8.42939 13.4377 8.35919 13.4124 8.29796Z" fill="#000088"/>
<path d="M16.2144 9.33333L14.9619 9.96405L14.4246 10.3667L15.0419 10.1026L16.2144 9.33333Z" fill="#000088"/>
<path d="M14.0089 8.17081C14.0002 8.1051 13.9399 8.05885 13.8742 8.0675C13.8085 8.07615 13.7623 8.13643 13.7709 8.20213C13.7796 8.26784 13.8399 8.31409 13.9056 8.30544C13.9713 8.29679 14.0175 8.23651 14.0089 8.17081Z" fill="#000088"/>
<path d="M16.4474 9.89607L15.0744 10.1811L14.4512 10.431L15.1158 10.3357L16.4474 9.89607Z" fill="#000088"/>
<path d="M14.6181 8.20236C14.6267 8.13665 14.5804 8.07638 14.5147 8.06772C14.449 8.05907 14.3888 8.10533 14.3801 8.17104C14.3715 8.23674 14.4177 8.29702 14.4834 8.30567C14.5491 8.31432 14.6094 8.26807 14.6181 8.20236Z" fill="#000088"/>
<path d="M16.527 10.5L15.127 10.42L14.4603 10.5L15.127 10.58L16.527 10.5Z" fill="#000088"/>
<path d="M15.1983 8.39052C15.2236 8.32929 15.1945 8.2591 15.1333 8.23374C15.0721 8.20837 15.0019 8.23745 14.9765 8.29868C14.9512 8.35991 14.9802 8.43011 15.0415 8.45547C15.1027 8.48083 15.1729 8.45175 15.1983 8.39052Z" fill="#000088"/>
<path d="M16.4475 11.1039L15.1159 10.6643L14.4512 10.569L15.0745 10.8188L16.4475 11.1039Z" fill="#000088"/>
<path d="M15.71 8.72241C15.7503 8.66983 15.7404 8.5945 15.6878 8.55416C15.6353 8.51381 15.5599 8.52373 15.5196 8.57631C15.4792 8.62889 15.4892 8.70422 15.5417 8.74456C15.5943 8.78491 15.6696 8.77499 15.71 8.72241Z" fill="#000088"/>
<path d="M16.2143 11.6667L15.0419 10.8974L14.4246 10.6334L14.9619 11.036L16.2143 11.6667Z" fill="#000088"/>
<path d="M16.1184 9.17543C16.171 9.13508 16.1809 9.05975 16.1406 9.00717C16.1002 8.9546 16.0249 8.94468 15.9723 8.98502C15.9197 9.02537 15.9098 9.1007 15.9502 9.15328C15.9905 9.20586 16.0658 9.21577 16.1184 9.17543Z" fill="#000088"/>
<path d="M15.8435 12.1499L14.9101 11.1034L14.3822 10.6885L14.797 11.2165L15.8435 12.1499Z" fill="#000088"/>
<path d="M16.3956 9.71875C16.4569 9.69339 16.4859 9.62319 16.4606 9.56196C16.4352 9.50073 16.365 9.47165 16.3038 9.49702C16.2426 9.52238 16.2135 9.59257 16.2389 9.6538C16.2642 9.71503 16.3344 9.74411 16.3956 9.71875Z" fill="#000088"/>
<path d="M15.3603 12.5208L14.7296 11.2683L14.3269 10.731L14.591 11.3483L15.3603 12.5208Z" fill="#000088"/>
<path d="M16.5228 10.3152C16.5885 10.3066 16.6348 10.2463 16.6261 10.1806C16.6175 10.1149 16.5572 10.0686 16.4915 10.0773C16.4258 10.0859 16.3795 10.1462 16.3882 10.2119C16.3968 10.2776 16.4571 10.3239 16.5228 10.3152Z" fill="#000088"/>
<path d="M14.7975 12.7539L14.5124 11.3809L14.2626 10.7576L14.3579 11.4223L14.7975 12.7539Z" fill="#000088"/>
</svg>
