<svg width="37" height="36" viewBox="0 0 37 36" fill="none" xmlns="http://www.w3.org/2000/svg">
<path d="M11.1834 16.5L10.1834 19.6H12.1834L11.1834 16.5Z" fill="white"/>
<path d="M30.4835 3H14.4835V8H18.4835V10H5.48346C3.78346 10 2.48346 11.3 2.48346 13V24C2.48346 25.7 3.78346 27 5.48346 27H6.48346V32.1L12.7835 27H19.4835V20H30.4835C32.1835 20 33.4835 18.7 33.4835 17V6C33.4835 4.3 32.1835 3 30.4835 3ZM13.2835 22.9L12.7835 21.3H9.68346L9.08346 22.9H6.68346L9.98346 14H12.3835L15.6835 22.9H13.2835ZM28.4835 15V17C27.1835 17 25.7835 16.6 24.5835 16C23.3835 16.6 21.9835 16.9 20.5835 17L20.4835 15C21.1835 15 21.8835 14.9 22.5835 14.7C21.6835 13.8 21.0835 12.7 20.7835 11.5H22.8835C23.1835 12.4 23.7835 13.1 24.4835 13.7C25.5835 12.8 26.2835 11.5 26.3835 10H20.3835V8H23.3835V6H25.3835V8H28.6835L28.7835 9C28.8835 11.1 28.0835 13.2 26.5835 14.7C27.2835 14.9 27.8835 15 28.4835 15Z" fill="white"/>
</svg>
