<svg width="10" height="10" viewBox="0 0 53 54" fill="none" xmlns="http://www.w3.org/2000/svg">
<path d="M26.4966 29.8901C24.2046 29.8901 22.0066 30.8006 20.3859 32.4213C18.7652 34.0419 17.8548 36.24 17.8548 38.532C17.8548 40.824 18.7652 43.0221 20.3859 44.6427C22.0066 46.2634 24.2046 47.1739 26.4966 47.1739C28.7886 47.1739 30.9867 46.2634 32.6073 44.6427C34.228 43.0221 35.1385 40.824 35.1385 38.532C35.1385 36.24 34.228 34.0419 32.6073 32.4213C30.9867 30.8006 28.7886 29.8901 26.4966 29.8901ZM22.793 38.532C22.793 37.5497 23.1832 36.6077 23.8777 35.9131C24.5723 35.2185 25.5143 34.8283 26.4966 34.8283C27.4789 34.8283 28.4209 35.2185 29.1155 35.9131C29.8101 36.6077 30.2003 37.5497 30.2003 38.532C30.2003 39.5143 29.8101 40.4563 29.1155 41.1509C28.4209 41.8454 27.4789 42.2357 26.4966 42.2357C25.5143 42.2357 24.5723 41.8454 23.8777 41.1509C23.1832 40.4563 22.793 39.5143 22.793 38.532Z" fill="#4FB180"/>
<path d="M40.1409 11.6582L32.2916 0.653427L3.43024 23.7099L1.83026 23.6926V23.7173H0.571014V53.3466H52.4222V23.7173H50.0469L45.3211 9.89281L40.1409 11.6582ZM44.8297 23.7173H20.0695L38.5113 17.431L42.2692 16.2285L44.8297 23.7173ZM35.2619 13.3224L16.2251 19.8112L31.3015 7.76692L35.2619 13.3224ZM5.50922 43.8874V33.1715C6.55092 32.8024 7.49712 32.2054 8.2788 31.4242C9.06049 30.6429 9.65797 29.697 10.0277 28.6555H42.9655C43.3351 29.6974 43.9325 30.6437 44.7142 31.4254C45.4958 32.207 46.4421 32.8044 47.484 33.174V43.8899C46.4421 44.2595 45.4958 44.8568 44.7142 45.6385C43.9325 46.4202 43.3351 47.3665 42.9655 48.4084H10.0326C9.66271 47.3656 9.06464 46.4186 8.28207 45.6365C7.4995 44.8543 6.55217 44.2568 5.50922 43.8874Z" fill="#4FB180"/>
</svg>
