<svg width="54" height="61" viewBox="0 0 54 61" fill="none" xmlns="http://www.w3.org/2000/svg">
<path d="M29.928 59.8964C42.6584 59.8964 52.9784 46.5702 52.9784 30.1315C52.9784 13.6927 42.6584 0.366516 29.928 0.366516C17.1976 0.366516 6.8775 13.6927 6.8775 30.1315C6.8775 46.5702 17.1976 59.8964 29.928 59.8964Z" fill="url(#paint0_linear_604_1009)" stroke="url(#paint1_linear_604_1009)" stroke-width="0.5" stroke-miterlimit="10"/>
<path d="M38.8104 38.5314V21.7314H43.7175C44.7324 21.7314 45.6069 21.9794 46.3411 22.4754C47.0752 22.9554 47.6421 23.6514 48.0415 24.5634C48.441 25.4754 48.6408 26.5634 48.6408 27.8274C48.6408 29.0754 48.441 30.1554 48.0415 31.0674C47.6421 31.9794 47.0752 32.6834 46.3411 33.1794C45.6069 33.6594 44.7324 33.8994 43.7175 33.8994H40.2679L41.434 32.1474V38.5314H38.8104ZM41.434 32.5794L40.2679 30.7314H43.5717C44.3815 30.7314 44.9861 30.4754 45.3856 29.9634C45.785 29.4514 45.9848 28.7394 45.9848 27.8274C45.9848 26.8994 45.785 26.1794 45.3856 25.6674C44.9861 25.1554 44.3815 24.8994 43.5717 24.8994H40.2679L41.434 23.0514V32.5794Z" fill="#33835B"/>
<path d="M27.107 38.5314V21.7314H32.0141C33.029 21.7314 33.9035 21.9794 34.6377 22.4754C35.3718 22.9554 35.9387 23.6514 36.3381 24.5634C36.7376 25.4754 36.9373 26.5634 36.9373 27.8274C36.9373 29.0754 36.7376 30.1554 36.3381 31.0674C35.9387 31.9794 35.3718 32.6834 34.6377 33.1794C33.9035 33.6594 33.029 33.8994 32.0141 33.8994H28.5645L29.7306 32.1474V38.5314H27.107ZM29.7306 32.5794L28.5645 30.7314H31.8683C32.6781 30.7314 33.2827 30.4754 33.6822 29.9634C34.0816 29.4514 34.2814 28.7394 34.2814 27.8274C34.2814 26.8994 34.0816 26.1794 33.6822 25.6674C33.2827 25.1554 32.6781 24.8994 31.8683 24.8994H28.5645L29.7306 23.0514V32.5794Z" fill="#33835B"/>
<path d="M15.4036 38.5314V21.7314H20.3107C21.3255 21.7314 22.2001 21.9794 22.9342 22.4754C23.6684 22.9554 24.2352 23.6514 24.6347 24.5634C25.0342 25.4754 25.2339 26.5634 25.2339 27.8274C25.2339 29.0754 25.0342 30.1554 24.6347 31.0674C24.2352 31.9794 23.6684 32.6834 22.9342 33.1794C22.2001 33.6594 21.3255 33.8994 20.3107 33.8994H16.8611L18.0272 32.1474V38.5314H15.4036ZM18.0272 32.5794L16.8611 30.7314H20.1649C20.9746 30.7314 21.5793 30.4754 21.9787 29.9634C22.3782 29.4514 22.578 28.7394 22.578 27.8274C22.578 26.8994 22.3782 26.1794 21.9787 25.6674C21.5793 25.1554 20.9746 24.8994 20.1649 24.8994H16.8611L18.0272 23.0514V32.5794Z" fill="#33835B"/>
<path fill-rule="evenodd" clip-rule="evenodd" d="M26.802 0.616658C29.1252 0.57323 30.2778 0.626943 31.9271 0.946435L32.0222 0.45556C30.3244 0.126692 29.1328 0.073058 26.7953 0.116695C23.8159 0.108822 20.8455 0.53562 17.9389 1.38885L17.9385 1.38896C15.9345 1.98063 13.987 2.857 12.1302 4.00169H12.0563V4.04751C10.4783 5.0336 8.99464 6.2569 7.63503 7.69179L7.6348 7.69204C5.95021 9.47484 4.50143 11.6056 3.34443 13.9985L3.34434 13.9987C2.39738 15.9617 1.6502 18.0775 1.12124 20.2926C0.630413 22.337 0.304261 24.443 0.148007 26.5761C0.06424 27.7005 0.0215454 28.8464 0.0215454 30.0072C0.0215454 30.8792 0.0455168 31.7425 0.093467 32.597H0.0835571V33.097H0.123817C0.257714 35.1409 0.54491 37.163 0.981407 39.1337L0.981439 39.1338C1.47091 41.3375 2.1711 43.4519 3.06574 45.4264L3.06594 45.4268C4.14447 47.7947 5.50519 49.9236 7.09802 51.732L7.09811 51.7321C8.27324 53.0649 9.55505 54.2292 10.9219 55.2044L10.9223 55.2047C12.6022 56.3986 14.377 57.351 16.2158 58.0443L16.2162 58.0445C18.6426 58.954 21.1363 59.5247 23.6555 59.7464L23.6993 59.2483C21.7162 59.0738 19.7483 58.6789 17.8165 58.0683H21.4197V57.5683H16.5146V57.622C16.4738 57.6069 16.433 57.5918 16.3922 57.5765C14.839 56.9909 13.3305 56.2153 11.8863 55.2597H17.3004H17.4677V54.7597H17.3004H11.1597C9.99133 53.9205 8.88496 52.9379 7.85545 51.8248H13.9477V51.3248H7.40596C5.95783 49.6652 4.70471 47.7296 3.68879 45.5812H10.007V45.0812H3.45868C2.65061 43.273 2.00677 41.3456 1.54069 39.3386H7.89017V38.8386H1.42865C1.02294 36.9627 0.753787 35.0402 0.624902 33.097H6.36258H6.8775V32.597H6.36258H0.594263C0.545792 31.7429 0.521545 30.8796 0.521545 30.0072C0.521545 28.9411 0.557942 27.888 0.629411 26.8531H6.8775V26.3531H0.666543C0.822169 24.4048 1.1214 22.4812 1.55995 20.6094H6.02607H10.1322V20.1094H6.02607H1.68053C2.18504 18.0821 2.87552 16.1438 3.73638 14.3375V14.3659L12.3624 14.3659V13.8659L3.967 13.8659C5.05447 11.696 6.38685 9.75919 7.91703 8.12184L16.0483 8.12184V7.62184L8.39958 7.62184C9.60612 6.40791 10.9043 5.3624 12.2732 4.50169L19.7978 4.50169V4.00169L13.1093 4.00169C14.7116 3.08588 16.3759 2.37168 18.0799 1.86857C18.113 1.85884 18.1461 1.84917 18.1793 1.83955V1.87806L23.4447 1.87806H23.9265V1.37806H23.4447L19.9645 1.37806C22.2201 0.865399 24.5059 0.610447 26.7967 0.6167V0.616758L26.802 0.616658Z" fill="url(#paint2_linear_604_1009)"/>
<defs>
<linearGradient id="paint0_linear_604_1009" x1="29.928" y1="18.5767" x2="31.0661" y2="59.865" gradientUnits="userSpaceOnUse">
<stop offset="0.051199" stop-color="#4FB180"/>
<stop offset="1" stop-color="#4FB180" stop-opacity="0"/>
</linearGradient>
<linearGradient id="paint1_linear_604_1009" x1="20.8748" y1="23.9594" x2="33.3333" y2="65.6016" gradientUnits="userSpaceOnUse">
<stop stop-color="#4FB180"/>
<stop offset="1" stop-color="#4FB180" stop-opacity="0"/>
</linearGradient>
<linearGradient id="paint2_linear_604_1009" x1="12.8638" y1="13.0166" x2="22.0274" y2="60.8428" gradientUnits="userSpaceOnUse">
<stop stop-color="#4FB180"/>
<stop offset="1" stop-color="#4FB180" stop-opacity="0"/>
</linearGradient>
</defs>
</svg>
