<svg width="28" height="28" viewBox="0 0 28 28" fill="none" xmlns="http://www.w3.org/2000/svg">
<path d="M21.4704 5.55204V15.9451L21.3537 16.0201L17.8727 3.73224H19.6506C19.743 4.18021 19.9645 4.59131 20.2879 4.91473C20.6113 5.23815 21.0224 5.45972 21.4704 5.55204ZM17.6083 2.79886H20.0704C20.1941 2.79886 20.3128 2.84803 20.4003 2.93555C20.4879 3.02307 20.537 3.14177 20.537 3.26555C20.5374 3.63674 20.6851 3.99262 20.9476 4.25509C21.21 4.51757 21.5659 4.66521 21.9371 4.66561C22.0609 4.66561 22.1796 4.71478 22.2671 4.8023C22.3546 4.88982 22.4038 5.00853 22.4038 5.1323V15.3447L24.2705 14.144V3.26555C24.2703 2.64675 24.0244 2.05336 23.5868 1.6158C23.1493 1.17825 22.5559 0.932333 21.9371 0.932109H17.0322C17.1105 1.09587 17.1745 1.26606 17.2236 1.4408L17.6083 2.79886ZM4.45965 14.6107L6.83384 16.1364L4.26268 7.05214C4.229 6.93303 4.244 6.80541 4.30438 6.69735C4.36475 6.58928 4.46557 6.50961 4.58466 6.47585C4.94171 6.37438 5.24393 6.1354 5.42498 5.81135C5.60603 5.48731 5.65114 5.10468 5.5504 4.74742C5.51672 4.6283 5.53172 4.50068 5.5921 4.39262C5.65247 4.28455 5.75329 4.20488 5.87238 4.17112L12.1592 2.39188C12.2182 2.37519 12.2799 2.37029 12.3408 2.37745C12.4017 2.38462 12.4606 2.4037 12.5141 2.43362C12.5676 2.46355 12.6147 2.50371 12.6527 2.55184C12.6907 2.59996 12.7188 2.65509 12.7355 2.71409C12.7855 2.89102 12.8699 3.05636 12.9838 3.20066C13.0977 3.34495 13.239 3.46538 13.3995 3.55505C13.56 3.64472 13.7366 3.70187 13.9192 3.72324C14.1018 3.74462 14.2869 3.72978 14.4637 3.6796C14.5828 3.64592 14.7105 3.66092 14.8185 3.7213C14.9266 3.78167 15.0063 3.88249 15.04 4.00158L18.8893 17.6016L20.5277 16.5475L16.3275 1.69748C16.1586 1.10252 15.7605 0.598862 15.2207 0.297017C14.6809 -0.00482788 14.0434 -0.0802119 13.4481 0.087404L3.56827 2.88286C2.9733 3.05178 2.46964 3.44983 2.16779 3.98965C1.86595 4.52947 1.79057 5.16699 1.9582 5.76233L4.45965 14.6107ZM12.3187 14.9561C12.914 14.7877 13.418 14.3897 13.72 13.8498C14.0219 13.3098 14.097 12.672 13.9287 12.0766C13.8457 11.7816 13.7053 11.5059 13.5156 11.2653C13.3259 11.0246 13.0905 10.8237 12.823 10.6742C12.5556 10.5246 12.2612 10.4293 11.9568 10.3937C11.6525 10.358 11.3441 10.3828 11.0493 10.4665C10.4541 10.635 9.95018 11.033 9.64836 11.5729C9.34655 12.1129 9.27155 12.7506 9.43985 13.3458C9.60815 13.9411 10.006 14.4451 10.5458 14.7471C11.0857 15.049 11.7234 15.1242 12.3187 14.9561ZM6.24239 6.26635C6.46411 5.86658 6.56464 5.41091 6.53174 4.95496L12.0107 3.40555C12.22 3.81239 12.5446 4.14843 12.944 4.3716C13.3438 4.5933 13.7995 4.69383 14.2554 4.66094L18.0683 18.1296L15.9215 19.511L15.1141 18.9929C14.7814 18.7837 14.3964 18.6727 14.0034 18.6727C13.6104 18.6727 13.2254 18.7837 12.8927 18.9929L12.0853 19.511L8.02047 16.8975L5.27635 7.20439C5.68245 6.99192 6.01807 6.66603 6.24239 6.26635ZM8.54316 13.6027C8.71875 14.2251 9.075 14.7814 9.56684 15.2012C10.0587 15.6211 10.664 15.8856 11.3062 15.9614C11.9484 16.0371 12.5987 15.9206 13.1747 15.6267C13.7507 15.3328 14.2266 14.8746 14.5422 14.3102C14.8577 13.7457 14.9988 13.1003 14.9474 12.4557C14.8961 11.8111 14.6547 11.1961 14.2538 10.6887C13.8529 10.1813 13.3105 9.80425 12.6952 9.60519C12.0799 9.40614 11.4194 9.39407 10.7973 9.5705C10.3841 9.68664 9.99797 9.88318 9.66094 10.1488C9.32391 10.4145 9.04263 10.7441 8.83322 11.1187C8.62381 11.4933 8.4904 11.9055 8.44062 12.3318C8.39085 12.758 8.4257 13.1899 8.54316 13.6027ZM27.8952 12.9254L16.785 20.0661L27.5779 27.0031C27.8547 26.6124 28.0036 26.1454 28.004 25.6666V13.6184C28.0029 13.3832 27.9662 13.1496 27.8952 12.9254ZM2.41555 10.7979L1.07616 11.6566C0.884295 11.7803 0.711379 11.9313 0.562802 12.1046L3.27893 13.85L2.41555 10.7979ZM26.9307 11.6566L25.2039 10.5459V13.5467L27.444 12.1046C27.2953 11.9314 27.1224 11.7805 26.9307 11.6566ZM13.3954 19.7785L1.13873 27.6587C1.49909 27.88 1.91333 27.9981 2.33622 28H25.6706C26.0942 27.9981 26.5091 27.8796 26.8699 27.6576L14.6098 19.7776C14.4277 19.6636 14.2173 19.6032 14.0025 19.6034C13.7877 19.6035 13.5773 19.6642 13.3954 19.7785ZM0.112159 12.9237C0.0408577 13.1484 0.00397919 13.3826 0.0027771 13.6184V25.6666C0.00324839 26.146 0.152541 26.6135 0.430044 27.0044L11.222 20.0662L0.112159 12.9237Z" fill="white"/>
</svg>
