<svg width="28" height="21" viewBox="0 0 28 21" fill="none" xmlns="http://www.w3.org/2000/svg">
<path d="M0.357773 0.5H38.3578V20.5H0.357773" fill="#B31942"/>
<path d="M0.357742 2.80767H38.3577H0.357742ZM38.3577 5.88459H0.357742H38.3577ZM0.357742 8.96152H38.3577H0.357742ZM38.3577 12.0384H0.357742H38.3577ZM0.357742 15.1154H38.3577H0.357742ZM38.3577 18.1923H0.357742H38.3577Z" fill="white"/>
<path fill-rule="evenodd" clip-rule="evenodd" d="M38.3577 3.57694H0.357742V2.03848H38.3577V3.57694ZM0.357742 5.1154H38.3577V6.65386H0.357742V5.1154ZM38.3577 9.73078H0.357742V8.19232H38.3577V9.73078ZM0.357742 11.2692H38.3577V12.8077H0.357742V11.2692ZM38.3577 15.8846H0.357742V14.3462H38.3577V15.8846ZM0.357742 17.4231H38.3577V18.9616H0.357742V17.4231Z" fill="white"/>
<path d="M0.357773 0.5H15.5578V11.2692H0.357773" fill="#0A3161"/>
<path d="M1.62442 0.961555L1.98613 2.0748L1.03915 1.38678H2.20969L1.26271 2.0748L1.62442 0.961555Z" fill="white"/>
<path d="M1.62443 3.1154L1.98615 4.22864L1.03917 3.54062H2.2097L1.26272 4.22864L1.62443 3.1154Z" fill="white"/>
<path d="M1.62443 5.26924L1.98615 6.38248L1.03917 5.69446H2.2097L1.26272 6.38248L1.62443 5.26924Z" fill="white"/>
<path d="M1.62443 7.42311L1.98615 8.53635L1.03917 7.84833H2.2097L1.26272 8.53635L1.62443 7.42311Z" fill="white"/>
<path d="M1.62443 9.57695L1.98615 10.6902L1.03917 10.0022H2.2097L1.26272 10.6902L1.62443 9.57695Z" fill="white"/>
<path d="M2.8911 2.03848L3.25281 3.15172L2.30583 2.4637H3.47636L2.52938 3.15172L2.8911 2.03848Z" fill="white"/>
<path d="M2.89111 4.19231L3.25283 5.30556L2.30585 4.61753H3.47638L2.5294 5.30556L2.89111 4.19231Z" fill="white"/>
<path d="M2.89111 6.34621L3.25283 7.45945L2.30585 6.77143H3.47638L2.5294 7.45945L2.89111 6.34621Z" fill="white"/>
<path d="M2.89111 8.50002L3.25283 9.61326L2.30585 8.92524H3.47638L2.5294 9.61326L2.89111 8.50002Z" fill="white"/>
<path d="M4.15773 0.961594L4.51944 2.07483L3.57246 1.38681H4.743L3.79602 2.07483L4.15773 0.961594Z" fill="white"/>
<path d="M4.15771 3.11544L4.51943 4.22868L3.57245 3.54066H4.74298L3.796 4.22868L4.15771 3.11544Z" fill="white"/>
<path d="M4.15771 5.26925L4.51943 6.38249L3.57245 5.69447H4.74298L3.796 6.38249L4.15771 5.26925Z" fill="white"/>
<path d="M4.15771 7.42314L4.51943 8.53638L3.57245 7.84836H4.74298L3.796 8.53638L4.15771 7.42314Z" fill="white"/>
<path d="M4.15771 9.57696L4.51943 10.6902L3.57245 10.0022H4.74298L3.796 10.6902L4.15771 9.57696Z" fill="white"/>
<path d="M5.42441 2.03852L5.78612 3.15176L4.83914 2.46374H6.00967L5.06269 3.15176L5.42441 2.03852Z" fill="white"/>
<path d="M5.42441 4.19235L5.78612 5.30559L4.83914 4.61757H6.00967L5.06269 5.30559L5.42441 4.19235Z" fill="white"/>
<path d="M5.42441 6.34621L5.78612 7.45946L4.83914 6.77143H6.00967L5.06269 7.45946L5.42441 6.34621Z" fill="white"/>
<path d="M5.42441 8.50005L5.78612 9.61329L4.83914 8.92527H6.00967L5.06269 9.61329L5.42441 8.50005Z" fill="white"/>
<path d="M6.6911 0.961594L7.05281 2.07483L6.10583 1.38681H7.27637L6.32939 2.07483L6.6911 0.961594Z" fill="white"/>
<path d="M6.6911 3.11544L7.05281 4.22868L6.10583 3.54066H7.27637L6.32939 4.22868L6.6911 3.11544Z" fill="white"/>
<path d="M6.6911 5.26925L7.05281 6.38249L6.10583 5.69447H7.27637L6.32939 6.38249L6.6911 5.26925Z" fill="white"/>
<path d="M6.6911 7.42314L7.05281 8.53638L6.10583 7.84836H7.27637L6.32939 8.53638L6.6911 7.42314Z" fill="white"/>
<path d="M6.6911 9.57696L7.05281 10.6902L6.10583 10.0022H7.27637L6.32939 10.6902L6.6911 9.57696Z" fill="white"/>
<path d="M7.95776 2.03852L8.31948 3.15176L7.3725 2.46374H8.54303L7.59605 3.15176L7.95776 2.03852Z" fill="white"/>
<path d="M7.95776 4.19235L8.31948 5.30559L7.3725 4.61757H8.54303L7.59605 5.30559L7.95776 4.19235Z" fill="white"/>
<path d="M7.95776 6.34621L8.31948 7.45946L7.3725 6.77143H8.54303L7.59605 7.45946L7.95776 6.34621Z" fill="white"/>
<path d="M7.95776 8.50005L8.31948 9.61329L7.3725 8.92527H8.54303L7.59605 9.61329L7.95776 8.50005Z" fill="white"/>
<path d="M9.22443 0.961601L9.58614 2.07484L8.63916 1.38682H9.80969L8.86271 2.07484L9.22443 0.961601Z" fill="white"/>
<path d="M9.22443 3.11545L9.58614 4.22869L8.63916 3.54067H9.80969L8.86271 4.22869L9.22443 3.11545Z" fill="white"/>
<path d="M9.22443 5.26929L9.58614 6.38253L8.63916 5.69451H9.80969L8.86271 6.38253L9.22443 5.26929Z" fill="white"/>
<path d="M9.22443 7.42315L9.58614 8.53639L8.63916 7.84837H9.80969L8.86271 8.53639L9.22443 7.42315Z" fill="white"/>
<path d="M9.22443 9.577L9.58614 10.6902L8.63916 10.0022H9.80969L8.86271 10.6902L9.22443 9.577Z" fill="white"/>
<path d="M10.4911 2.03853L10.8528 3.15177L9.90584 2.46375H11.0764L10.1294 3.15177L10.4911 2.03853Z" fill="white"/>
<path d="M10.4911 4.19236L10.8528 5.3056L9.90585 4.61758H11.0764L10.1294 5.3056L10.4911 4.19236Z" fill="white"/>
<path d="M10.4911 6.34625L10.8528 7.45949L9.90585 6.77147H11.0764L10.1294 7.45949L10.4911 6.34625Z" fill="white"/>
<path d="M10.4911 8.50006L10.8528 9.6133L9.90585 8.92528H11.0764L10.1294 9.6133L10.4911 8.50006Z" fill="white"/>
<path d="M11.7577 0.961594L12.1194 2.07483L11.1725 1.38681H12.343L11.396 2.07483L11.7577 0.961594Z" fill="white"/>
<path d="M11.7577 3.11544L12.1194 4.22868L11.1725 3.54066H12.343L11.396 4.22868L11.7577 3.11544Z" fill="white"/>
<path d="M11.7577 5.26925L12.1194 6.38249L11.1725 5.69447H12.343L11.396 6.38249L11.7577 5.26925Z" fill="white"/>
<path d="M11.7577 7.42314L12.1194 8.53638L11.1725 7.84836H12.343L11.396 8.53638L11.7577 7.42314Z" fill="white"/>
<path d="M11.7577 9.57696L12.1194 10.6902L11.1725 10.0022H12.343L11.396 10.6902L11.7577 9.57696Z" fill="white"/>
<path d="M13.0244 2.03852L13.3861 3.15176L12.4391 2.46374H13.6097L12.6627 3.15176L13.0244 2.03852Z" fill="white"/>
<path d="M13.0244 4.19235L13.3861 5.30559L12.4391 4.61757H13.6097L12.6627 5.30559L13.0244 4.19235Z" fill="white"/>
<path d="M13.0244 6.34621L13.3861 7.45946L12.4391 6.77143H13.6097L12.6627 7.45946L13.0244 6.34621Z" fill="white"/>
<path d="M13.0244 8.50005L13.3861 9.61329L12.4391 8.92527H13.6097L12.6627 9.61329L13.0244 8.50005Z" fill="white"/>
<path d="M14.2911 0.961594L14.6528 2.07483L13.7058 1.38681H14.8764L13.9294 2.07483L14.2911 0.961594Z" fill="white"/>
<path d="M14.2911 3.11544L14.6528 4.22868L13.7058 3.54066H14.8764L13.9294 4.22868L14.2911 3.11544Z" fill="white"/>
<path d="M14.2911 5.26925L14.6528 6.38249L13.7058 5.69447H14.8764L13.9294 6.38249L14.2911 5.26925Z" fill="white"/>
<path d="M14.2911 7.42314L14.6528 8.53638L13.7058 7.84836H14.8764L13.9294 8.53638L14.2911 7.42314Z" fill="white"/>
<path d="M14.2911 9.57696L14.6528 10.6902L13.7058 10.0022H14.8764L13.9294 10.6902L14.2911 9.57696Z" fill="white"/>
</svg>
